<svg xmlns="http://www.w3.org/2000/svg" xmlns:xlink="http://www.w3.org/1999/xlink" viewBox="0 0 280 250" preserveAspectRatio="xMidYMid" style="display: block; shape-rendering: auto; background: rgb(255, 255, 255);" width="280" height="250"><style type="text/css">
  .ld-text text {
    text-anchor: middle;
    dominant-baseline: middle;
    font-size: 80px;
    opacity: 0;
    user-select: none;
    pointer-events: none;
  }
</style>
<g style="transform-origin:140px 125px;transform:scale(1)" class="ld-text">
<g transform="translate(140,125)">
  <g transform="scale(1.0000) translate(0,0)"><g class="path" style="opacity: 1; transform-origin: -75.32px 22.42px; transform: matrix3d(1, 0, 0, 0, 0, 1, 0, 0, 0, 0, 1, 0, 0, 0, 0, 1); animation: 1s linear -0.594s infinite normal forwards running animate-hfcromkpxcd; transform-box: view-box;"><path d="M50.24 1.47L50.24 1.47Q58 1.47 63.52-1.57L63.52-1.57L64.40-0.13Q59.20 2.91 52.96 3.15L52.96 3.15Q47.92 7.95 44.44 19.15Q40.96 30.35 40.96 42.99L40.96 42.99Q40.96 50.75 43.80 53.95Q46.64 57.15 50.48 57.15L50.48 57.15Q53.04 57.15 55.44 55.99Q57.84 54.83 59.16 53.71Q60.48 52.59 62.64 50.43L62.64 50.43Q61.36 46.59 61.36 38.47Q61.36 30.35 64.16 20.95Q66.96 11.55 71.60 5.55Q76.24-0.45 81.20-0.45L81.20-0.45Q83.60-0.45 84.84 0.83Q86.08 2.11 86.08 5.47L86.08 5.47Q86.08 12.27 81.72 23.55Q77.36 34.83 70.48 44.11L70.48 44.11Q71.20 50.27 74.40 53.23Q77.60 56.19 82.56 56.19L82.56 56.19Q91.68 56.19 98.96 38.75L98.96 38.75Q104.56 25.31 104.56 11.23Q104.56-2.85 99.12-8.29L99.12-8.29L100.32-9.49Q106.32-3.49 106.32 11.47L106.32 11.47Q106.32 25.39 100.64 39.47L100.64 39.47Q91.68 61.07 76.24 61.07L76.24 61.07Q68.32 61.07 64.64 54.75L64.64 54.75Q63.68 53.15 63.28 52.35L63.28 52.35Q54.80 61.07 44.56 61.07L44.56 61.07Q37.92 61.07 34.68 56.63Q31.44 52.19 31.44 45.87Q31.44 39.55 33.08 33.27Q34.72 26.99 36.88 22.51Q39.04 18.03 42.08 13.71L42.08 13.71Q46.24 7.55 50.64 3.15L50.64 3.15Q48 3.15 43.76 2.59L43.76 2.59Q34.88 2.11 34.24 2.11L34.24 2.11Q23.04 2.11 16.64 7.75Q10.24 13.39 10.24 23.31L10.24 23.31Q10.24 27.95 12.40 32.03L12.40 32.03Q13.52 34.19 17.28 36.99L17.28 36.99Q18.08 37.63 19.84 38.35Q21.60 39.07 21.68 39.07L21.68 39.07L23.04 39.47L22.80 41.15Q21.28 41.15 18.40 39.55Q15.52 37.95 13.48 36.15Q11.44 34.35 9.96 30.95Q8.48 27.55 8.48 23.31L8.48 23.31Q8.48 12.75 15.44 6.55Q22.40 0.35 34.24 0.35L34.24 0.35Q39.04 0.35 43.04 0.91Q47.04 1.47 50.24 1.47" style="fill: rgb(32, 80, 129);" transform="translate(-132.720,-24.536)"></path></g><g class="path" style="opacity: 1; transform-origin: -55.48px 8.77px; transform: matrix3d(1, 0, 0, 0, 0, 1, 0, 0, 0, 0, 1, 0, 0, 0, 0, 1); animation: 1s linear -0.528s infinite normal forwards running animate-hfcromkpxcd; transform-box: view-box;"><path d="M70.24 40.11L70.24 40.11L70.24 41.31Q71.04 40.19 72.32 38.11L72.32 38.11Q77.52 30.03 80.88 20.75Q84.24 11.47 84.24 5.47L84.24 5.47Q84.24 1.31 81.20 1.31L81.20 1.31Q80 1.31 78.56 1.95L78.56 1.95Q75.92 4.43 73.44 11.79L73.44 11.79Q70.24 21.23 70.24 40.11" style="fill: rgb(32, 80, 129);" transform="translate(-132.720,-24.536)"></path></g><g class="path" style="opacity: 1; transform-origin: -13.32px 18.89px; transform: matrix3d(1, 0, 0, 0, 0, 1, 0, 0, 0, 0, 1, 0, 0, 0, 0, 1); animation: 1s linear -0.462s infinite normal forwards running animate-hfcromkpxcd; transform-box: view-box;"><path d="M126.08 46.91Q123.68 49.79 120.08 49.79Q116.48 49.79 114.44 47.95Q112.40 46.11 112.40 43.15L112.40 43.15Q112.40 42.11 113.68 34.43L113.68 34.43L116.32 20.11L112.96 20.11L113.12 18.67L116.56 18.67Q122.48 18.67 125.28 18.19L125.28 18.19L126.40 17.95L120.88 48.19Q123.28 47.95 124.88 45.95L124.88 45.95L126.08 46.91" style="fill: rgb(32, 80, 129);" transform="translate(-132.720,-24.536)"></path></g><g class="path" style="opacity: 1; transform-origin: -9.56px -14.91px; transform: matrix3d(1, 0, 0, 0, 0, 1, 0, 0, 0, 0, 1, 0, 0, 0, 0, 1); animation: 1s linear -0.396s infinite normal forwards running animate-hfcromkpxcd; transform-box: view-box;"><path d="M119.04 10.27Q117.36 8.59 117.36 6.19Q117.36 3.79 119.04 2.07Q120.72 0.35 123.12 0.35Q125.52 0.35 127.24 2.07Q128.96 3.79 128.96 6.19Q128.96 8.59 127.24 10.27Q125.52 11.95 123.12 11.95Q120.72 11.95 119.04 10.27" style="fill: rgb(32, 80, 129);" transform="translate(-132.720,-24.536)"></path></g><g class="path" style="opacity: 1; transform-origin: 9.48px 14.74px; transform: matrix3d(1, 0, 0, 0, 0, 1, 0, 0, 0, 0, 1, 0, 0, 0, 0, 1); animation: 1s linear -0.33s infinite normal forwards running animate-hfcromkpxcd; transform-box: view-box;"><path d="M145.28 46.19Q144.24 47.55 142.44 48.67Q140.64 49.79 137.76 49.79Q134.88 49.79 132.88 47.95Q130.88 46.11 130.88 42.75L130.88 42.75Q130.88 42.11 131.04 40.67L131.04 40.67L136.24 11.87Q137.68 3.95 140.20 0.59Q142.72-2.77 146.88-2.77L146.88-2.77Q149.76-2.77 151.64-0.61Q153.52 1.55 153.52 5.95Q153.52 10.35 150.12 18.51Q146.72 26.67 146.72 30.43L146.72 30.43L145.28 30.43Q145.28 26.19 148.64 18.31Q152 10.43 152 5.71L152 5.71Q152 2.83 150.68 0.75Q149.36-1.33 147.44-1.33L147.44-1.33Q147.36 0.75 144.68 17.35Q142 33.95 139.36 48.19L139.36 48.19Q141.60 48.19 143.52 45.87Q145.44 43.55 146.24 41.23L146.24 41.23L147.12 38.83L148.56 39.47Q148.32 40.59 147.32 42.71Q146.32 44.83 145.28 46.19" style="fill: rgb(32, 80, 129);" transform="translate(-132.720,-24.536)"></path></g><g class="path" style="opacity: 1; transform-origin: 31.6px 18.15px; transform: matrix3d(1, 0, 0, 0, 0, 1, 0, 0, 0, 0, 1, 0, 0, 0, 0, 1); animation: 1s linear -0.264s infinite normal forwards running animate-hfcromkpxcd; transform-box: view-box;"><path d="M160.40 47.71L160.40 47.71Q168.32 47.71 168.32 36.03L168.32 36.03Q168.32 33.15 167.48 29.23Q166.64 25.31 166.48 24.35L166.48 24.35Q161.60 29.39 155.52 30.43L155.52 30.43L155.52 28.51Q161.28 27.23 166.32 21.95L166.32 21.95L166.32 21.63Q166.32 19.71 166.88 17.87Q167.44 16.03 168 15.15L168 15.15L168.56 14.27L170.48 14.27Q170.48 17.79 171.60 20.71Q172.72 23.63 174.08 25.43Q175.44 27.23 176.56 30.15Q177.68 33.07 177.68 36.59L177.68 36.59Q177.68 42.27 173.40 46.03Q169.12 49.79 163.12 49.79Q157.12 49.79 154.04 47.07Q150.96 44.35 150.96 40.79Q150.96 37.23 152.72 35.67Q154.48 34.11 156.88 34.11Q159.28 34.11 160.84 35.67Q162.40 37.23 162.40 39.67Q162.40 42.11 160.88 43.79Q159.36 45.47 156.96 45.47L156.96 45.47Q155.92 45.47 154.80 45.15L154.80 45.15Q156.56 47.71 160.40 47.71" style="fill: rgb(32, 80, 129);" transform="translate(-132.720,-24.536)"></path></g><g class="path" style="opacity: 1; transform-origin: 65.92px 27.67px; transform: matrix3d(1, 0, 0, 0, 0, 1, 0, 0, 0, 0, 1, 0, 0, 0, 0, 1); animation: 1s linear -0.198s infinite normal forwards running animate-hfcromkpxcd; transform-box: view-box;"><path d="M198.32 49.71L198.32 49.71Q194.64 49.71 192.48 48.03L192.48 48.03L190.08 60.91L180.56 60.91L188.08 18.99Q185.68 19.23 184.08 21.23L184.08 21.23L182.88 20.27Q185.28 17.39 188.84 17.39Q192.40 17.39 194.40 19.11Q196.40 20.83 196.56 23.95L196.56 23.95Q200.08 17.95 205.52 17.95Q210.96 17.95 213.84 21.03Q216.72 24.11 216.72 29.47L216.72 29.47Q216.72 38.91 211.60 44.31Q206.48 49.71 198.32 49.71 zM195.92 29.15L193.04 44.83Q194.40 47.87 198.20 47.87Q202 47.87 204.84 41.47Q207.68 35.07 207.68 26.19L207.68 26.19Q207.68 22.51 206.92 21.15Q206.16 19.79 204.16 19.79Q202.16 19.79 200.04 22.19Q197.92 24.59 196.96 26.71Q196 28.83 196 29.15L196 29.15L195.92 29.15" style="fill: rgb(32, 80, 129);" transform="translate(-132.720,-24.536)"></path></g><g class="path" style="opacity: 1; transform-origin: 96.04px 18.89px; transform: matrix3d(1, 0, 0, 0, 0, 1, 0, 0, 0, 0, 1, 0, 0, 0, 0, 1); animation: 1s linear -0.132s infinite normal forwards running animate-hfcromkpxcd; transform-box: view-box;"><path d="M235.44 46.91Q233.04 49.79 229.44 49.79Q225.84 49.79 223.80 47.95Q221.76 46.11 221.76 43.15L221.76 43.15Q221.76 42.11 223.04 34.43L223.04 34.43L225.68 20.11L222.32 20.11L222.48 18.67L225.92 18.67Q231.84 18.67 234.64 18.19L234.64 18.19L235.76 17.95L230.24 48.19Q232.64 47.95 234.24 45.95L234.24 45.95L235.44 46.91" style="fill: rgb(32, 80, 129);" transform="translate(-132.720,-24.536)"></path></g><g class="path" style="opacity: 1; transform-origin: 99.8px -14.91px; transform: matrix3d(1, 0, 0, 0, 0, 1, 0, 0, 0, 0, 1, 0, 0, 0, 0, 1); animation: 1s linear -0.066s infinite normal forwards running animate-hfcromkpxcd; transform-box: view-box;"><path d="M228.40 10.27Q226.72 8.59 226.72 6.19Q226.72 3.79 228.40 2.07Q230.08 0.35 232.48 0.35Q234.88 0.35 236.60 2.07Q238.32 3.79 238.32 6.19Q238.32 8.59 236.60 10.27Q234.88 11.95 232.48 11.95Q230.08 11.95 228.40 10.27" style="fill: rgb(32, 80, 129);" transform="translate(-132.720,-24.536)"></path></g><g class="path" style="opacity: 1; transform-origin: 123.8px 14.74px; transform: matrix3d(1, 0, 0, 0, 0, 1, 0, 0, 0, 0, 1, 0, 0, 0, 0, 1); animation: 1s linear 0s infinite normal forwards running animate-hfcromkpxcd; transform-box: view-box;"><path d="M251.52 33.63L251.52 33.63L248.64 49.07L239.12 49.07L248.16-1.17Q245.76-0.93 244.16 1.07L244.16 1.07L242.96 0.11Q245.36-2.77 249-2.77Q252.64-2.77 254.64-0.93Q256.64 0.91 256.64 4.27L256.64 4.27Q256.64 4.91 256.48 6.35L256.48 6.35Q254.64 16.51 252.48 28.27L252.48 28.27Q254.48 23.39 258.24 20.67Q262 17.95 266.24 17.95Q270.48 17.95 272.20 19.63Q273.92 21.31 273.92 23.83Q273.92 26.35 272.40 27.95Q270.88 29.55 268.44 29.55Q266 29.55 264.68 28.15Q263.36 26.75 263.36 23.99Q263.36 21.23 265.28 19.79L265.28 19.79Q257.60 20.67 253.04 31.15L253.04 31.15Q254.16 30.99 254.96 30.99L254.96 30.99Q259.20 30.99 261.64 32.67Q264.08 34.35 264.80 36.79Q265.52 39.23 265.84 41.67Q266.16 44.11 266.88 45.79Q267.60 47.47 269.44 47.47Q271.28 47.47 272.32 45.95L272.32 45.95L273.52 46.91Q272.96 48.03 271.04 48.91Q269.12 49.79 266.12 49.79Q263.12 49.79 260.84 48.27Q258.56 46.75 257.68 44.47Q256.80 42.19 256.24 39.95L256.24 39.95Q254.72 34.19 251.52 33.63" style="fill: rgb(32, 80, 129);" transform="translate(-132.720,-24.536)"></path></g></g><text dy="0.35em" fill="#205081" font-family="Sail" font-size="80">Wilspik</text>
</g>
</g><style type="text/css">@keyframes animate-hfcromkpxcd { 0.00% {transform: translate(0.00px,0.00px) rotate(0.00deg) scale(1.00, 1.00) skew(0deg, 0.00deg) ;opacity: 1.00;}2.00% {animation-timing-function: cubic-bezier(0.20,0.39,0.50,0.97);transform: translate(0.00px,-1.08px) rotate(0.00deg) ;}36.00% {animation-timing-function: cubic-bezier(0.50,0.03,0.80,0.61);transform: translate(0.00px,-10.00px) rotate(0.00deg) ;}72.00% {transform: translate(0.00px,-0.12px) rotate(0.00deg) ;}74.00% {animation-timing-function: cubic-bezier(0.24,0.43,0.48,0.91);transform: translate(0.00px,0.00px) rotate(0.00deg) scale(1.00, 0.95) ;}86.00% {animation-timing-function: cubic-bezier(0.53,0.08,0.77,0.57);transform: translate(0.00px,0.00px) rotate(0.00deg) scale(1.00, 0.80) ;}100.00% {animation-timing-function: cubic-bezier(0.53,0.08,0.77,0.57);transform: translate(0.00px,0.00px) rotate(0.00deg) scale(1.00, 1.00) ;} }</style><!-- [ldio] generated by https://loading.io --></svg>